<svg width="32" height="19" fill="none" xmlns="http://www.w3.org/2000/svg"><path d="M31.83 16.94a2.362 2.362 0 0 0-.109-.213c-.555-1.027-1.616-2.289-3.182-3.784l-.033-.034-.017-.017-.016-.017h-.017c-.71-.696-1.16-1.164-1.35-1.404-.343-.456-.421-.918-.232-1.386.134-.354.633-1.101 1.5-2.243.455-.604.815-1.09 1.082-1.456 1.922-2.624 2.754-4.301 2.5-5.032l-.101-.171c-.067-.104-.24-.198-.517-.283-.277-.086-.633-.1-1.066-.043l-4.798.035a1.33 1.33 0 0 0-.55.06l-.083.042-.067.052a.745.745 0 0 0-.183.18 1.154 1.154 0 0 0-.167.3 28.282 28.282 0 0 1-1.782 3.852 37.21 37.21 0 0 1-1.133 1.84c-.344.52-.633.902-.866 1.147a6.094 6.094 0 0 1-.633.59c-.189.15-.334.211-.433.189a7.575 7.575 0 0 1-.283-.07 1.123 1.123 0 0 1-.375-.419 1.923 1.923 0 0 1-.192-.667 7.282 7.282 0 0 1-.058-.693c-.006-.195-.003-.468.008-.822.012-.354.017-.593.017-.719 0-.433.008-.904.025-1.412.017-.508.03-.91.042-1.207.01-.296.016-.61.016-.942 0-.33-.02-.59-.058-.779a2.779 2.779 0 0 0-.175-.548.912.912 0 0 0-.342-.41 1.888 1.888 0 0 0-.558-.231c-.59-.137-1.338-.21-2.249-.223-2.066-.022-3.393.115-3.982.412a2.259 2.259 0 0 0-.633.513c-.2.252-.228.39-.083.41.666.104 1.138.35 1.416.737l.1.205c.077.15.155.412.233.788.078.377.128.793.15 1.25.056.833.056 1.546 0 2.14a25.909 25.909 0 0 1-.158 1.385c-.05.332-.125.6-.225.805a3.38 3.38 0 0 1-.2.377.293.293 0 0 1-.083.086 1.224 1.224 0 0 1-.45.085c-.156 0-.345-.08-.567-.24a3.998 3.998 0 0 1-.692-.659c-.239-.279-.507-.67-.808-1.173-.3-.501-.61-1.095-.933-1.78l-.266-.497c-.167-.319-.395-.784-.683-1.394-.289-.61-.545-1.201-.767-1.773a1.133 1.133 0 0 0-.4-.547l-.083-.052a1.117 1.117 0 0 0-.267-.145 1.754 1.754 0 0 0-.383-.112L1.066.857c-.466 0-.783.11-.95.326l-.066.103A.567.567 0 0 0 0 1.56c0 .126.034.28.1.462a57.133 57.133 0 0 0 2.174 4.656c.784 1.495 1.464 2.7 2.042 3.612a42.632 42.632 0 0 0 1.766 2.585c.6.81.996 1.33 1.19 1.558.195.228.347.4.459.514l.416.41c.267.275.658.603 1.175.985.516.383 1.088.759 1.716 1.13.627.37 1.357.672 2.19.907a7.362 7.362 0 0 0 2.432.282h1.916c.39-.034.683-.16.883-.377l.067-.085c.044-.068.086-.174.125-.317.038-.142.058-.3.058-.47-.011-.491.025-.934.108-1.327.084-.394.178-.69.284-.89.106-.2.224-.369.358-.506.134-.137.228-.219.284-.248.055-.028.1-.048.133-.06.266-.09.58-.002.941.265.361.27.7.6 1.017.994.316.393.696.835 1.14 1.326.445.491.834.856 1.167 1.096l.334.206c.222.136.51.262.866.377.355.113.666.142.933.085l4.265-.069c.422 0 .75-.071.983-.214.233-.142.372-.3.416-.47.044-.172.047-.365.008-.583a2.193 2.193 0 0 0-.116-.453z" fill="#111"/></svg>