<svg width="20" height="19" fill="none" xmlns="http://www.w3.org/2000/svg"><path d="M17.087 2.726C15.207.969 12.706.001 10.042 0 4.553 0 .086 4.17.084 9.295c0 1.638.458 3.237 1.329 4.647L0 18.759l5.279-1.293c1.454.74 3.092 1.13 4.759 1.131h.004c5.488 0 9.956-4.17 9.958-9.295.002-2.484-1.033-4.819-2.913-6.576zm-7.045 14.302h-.003a8.72 8.72 0 0 1-4.213-1.077l-.302-.168-3.133.767.836-2.85-.197-.293a7.334 7.334 0 0 1-1.265-4.112c.002-4.26 3.715-7.725 8.28-7.725 2.211 0 4.29.805 5.852 2.266 1.563 1.46 2.423 3.4 2.422 5.465-.002 4.26-3.715 7.726-8.277 7.726z" fill="#111"/><path d="M14.582 11.241c-.248-.116-1.472-.678-1.7-.755-.228-.078-.394-.117-.56.116-.166.232-.642.755-.788.91-.145.155-.29.175-.539.058-.248-.116-1.05-.36-2-1.152-.74-.616-1.24-1.377-1.385-1.61-.145-.232-.016-.358.109-.473.112-.104.249-.272.373-.407.124-.136.166-.233.249-.388.083-.155.042-.29-.02-.406-.063-.117-.56-1.26-.768-1.725-.202-.453-.407-.391-.56-.399a10.56 10.56 0 0 0-.477-.008.945.945 0 0 0-.663.291c-.228.233-.871.794-.871 1.938 0 1.143.891 2.247 1.016 2.402.124.155 1.755 2.501 4.25 3.507.595.24 1.058.382 1.42.49a3.644 3.644 0 0 0 1.567.091c.478-.066 1.472-.561 1.679-1.104.207-.542.207-1.008.145-1.104-.062-.097-.228-.156-.477-.272z" fill="#111"/></svg>