<svg width="28" height="20" fill="none" xmlns="http://www.w3.org/2000/svg"><path d="M27.65 4.418c-.266-1.98-1.477-3.221-3.626-3.405-2.462-.21-7.79-.33-10.26-.33-5.056 0-7.315.116-9.705.35C1.78 1.255.783 2.21.39 4.185.117 5.568 0 6.863 0 9.925c0 2.75.138 4.48.35 5.935.293 1.998 1.745 3.121 3.874 3.289 2.476.195 7.437.292 9.89.292 2.37 0 7.703-.117 10.074-.37 2.123-.227 3.132-1.297 3.462-3.27 0 0 .35-2.16.35-5.895 0-2.128-.165-4.106-.35-5.488zm-16.627 9.36V6.176l7.664 3.762-7.664 3.84z" fill="#111"/></svg>