<svg width="26" height="36" viewBox="0 0 26 36" fill="none" xmlns="http://www.w3.org/2000/svg">
<path d="M21.6848 12.9568C21.6881 12.9218 21.6881 12.8866 21.6848 12.8517V6.37257C21.6848 3.21378 18.6109 0.644684 14.837 0.644684H10.6522C6.87827 0.644684 3.80435 3.21378 3.80435 6.37257V22.0538H0.570657C0.41931 22.0538 0.274163 22.1132 0.167145 22.2188C0.0601266 22.3245 4.5483e-06 22.4678 4.5483e-06 22.6172V25.6446C-0.000352574 25.7329 0.0203254 25.82 0.0603697 25.899C0.100414 25.978 0.158703 26.0466 0.230532 26.0992C0.302362 26.1518 0.38572 26.1871 0.473879 26.202C0.562038 26.217 0.652529 26.2113 0.738048 26.1854H8.17935C8.3307 26.1854 8.47585 26.1261 8.58286 26.0204C8.68988 25.9148 8.75 25.7714 8.75 25.622V22.6172C8.75 22.4678 8.68988 22.3245 8.58286 22.2188C8.47585 22.1132 8.3307 22.0538 8.17935 22.0538H4.94566V6.37257C4.94566 3.83352 7.50598 1.77148 10.6522 1.77148H14.837C17.9832 1.77148 20.5435 3.83352 20.5435 6.37257V12.2469C18.609 11.2462 16.4499 10.7436 14.2663 10.7859C14.115 10.7859 13.9698 10.8452 13.8628 10.9509C13.7558 11.0565 13.6957 11.1998 13.6957 11.3493V26.3732C13.6957 26.5226 13.7558 26.6659 13.8628 26.7716C13.9698 26.8773 14.115 26.9366 14.2663 26.9366C14.4177 26.9366 14.5628 26.8773 14.6698 26.7716C14.7768 26.6659 14.837 26.5226 14.837 26.3732V11.9127C20.6348 12.123 24.3478 15.5409 24.3478 20.743V32.195H20.3533C20.2019 32.195 20.0568 32.2544 19.9498 32.36C19.8427 32.4657 19.7826 32.609 19.7826 32.7584C19.7826 32.9078 19.8427 33.0511 19.9498 33.1568C20.0568 33.2625 20.2019 33.3218 20.3533 33.3218H24.9185C25.0698 33.3218 25.215 33.2625 25.322 33.1568C25.429 33.0511 25.4891 32.9078 25.4891 32.7584V20.7392C25.4891 17.4265 24.0815 14.7071 21.6848 12.9568ZM7.6087 25.0586H1.14131V23.1806H7.6087V25.0586Z" fill="#007198"/>
<path d="M14.4566 28.439C13.7794 28.439 13.1175 28.6373 12.5544 29.0087C11.9913 29.3802 11.5525 29.9081 11.2933 30.5258C11.0342 31.1435 10.9664 31.8232 11.0985 32.4789C11.2306 33.1346 11.5567 33.7369 12.0356 34.2097C12.5144 34.6825 13.1245 35.0044 13.7887 35.1348C14.4528 35.2653 15.1413 35.1983 15.7669 34.9425C16.3925 34.6866 16.9273 34.2533 17.3035 33.6974C17.6797 33.1415 17.8805 32.488 17.8805 31.8194C17.8805 30.9229 17.5198 30.0631 16.8777 29.4291C16.2356 28.7952 15.3647 28.439 14.4566 28.439ZM14.4566 34.073C14.0052 34.073 13.5639 33.9408 13.1885 33.6932C12.8131 33.4456 12.5205 33.0936 12.3478 32.6818C12.175 32.27 12.1298 31.8169 12.2179 31.3797C12.306 30.9426 12.5234 30.541 12.8426 30.2259C13.1618 29.9107 13.5685 29.6961 14.0113 29.6091C14.4541 29.5222 14.9131 29.5668 15.3301 29.7374C15.7472 29.9079 16.1037 30.1968 16.3545 30.5674C16.6054 30.938 16.7392 31.3737 16.7392 31.8194C16.7392 32.4171 16.4988 32.9903 16.0707 33.4129C15.6426 33.8356 15.062 34.073 14.4566 34.073Z" fill="#007198"/>
<path d="M0.951145 27.6878C0.799799 27.6878 0.654652 27.7472 0.547634 27.8528C0.440616 27.9585 0.380493 28.1018 0.380493 28.2512V32.0072C0.380493 32.1566 0.440616 32.2999 0.547634 32.4056C0.654652 32.5113 0.799799 32.5706 0.951145 32.5706C1.10249 32.5706 1.24764 32.5113 1.35466 32.4056C1.46168 32.2999 1.5218 32.1566 1.5218 32.0072V28.2512C1.5218 28.1018 1.46168 27.9585 1.35466 27.8528C1.24764 27.7472 1.10249 27.6878 0.951145 27.6878Z" fill="#007198"/>
<path d="M4.37485 27.6878C4.22351 27.6878 4.07836 27.7472 3.97134 27.8528C3.86432 27.9585 3.8042 28.1018 3.8042 28.2512V32.0072C3.8042 32.1566 3.86432 32.2999 3.97134 32.4056C4.07836 32.5112 4.22351 32.5706 4.37485 32.5706C4.5262 32.5706 4.67135 32.5112 4.77836 32.4056C4.88538 32.2999 4.9455 32.1566 4.9455 32.0072V28.2512C4.9455 28.1018 4.88538 27.9585 4.77836 27.8528C4.67135 27.7472 4.5262 27.6878 4.37485 27.6878Z" fill="#007198"/>
<path d="M7.79868 27.6878C7.64733 27.6878 7.50219 27.7472 7.39517 27.8528C7.28815 27.9585 7.22803 28.1018 7.22803 28.2512V32.0072C7.22803 32.1566 7.28815 32.2999 7.39517 32.4056C7.50219 32.5112 7.64733 32.5706 7.79868 32.5706C7.95003 32.5706 8.09517 32.5112 8.20219 32.4056C8.30921 32.2999 8.36933 32.1566 8.36933 32.0072V28.2512C8.36933 28.1018 8.30921 27.9585 8.20219 27.8528C8.09517 27.7472 7.95003 27.6878 7.79868 27.6878Z" fill="#007198"/>
</svg>
