<svg width="22" height="36" viewBox="0 0 22 36" fill="none" xmlns="http://www.w3.org/2000/svg">
<path d="M21.8005 4.60581C22.0663 4.34665 22.0663 3.9579 21.8005 3.69874L21.7562 3.65555L17.9013 0.761555C17.7684 0.675167 17.6355 0.631973 17.5025 0.631973H2.96926C2.61479 0.631973 2.30463 0.934331 2.30463 1.27988V6.03121C2.30463 6.37676 2.61479 6.67912 2.96926 6.67912H7.00136L3.72251 11.3009C3.50097 11.6032 3.58958 11.992 3.89975 12.2079C4.20991 12.4239 4.60869 12.3375 4.83023 12.0352L8.59648 6.72231L11.6095 8.10452V10.9985H10.1473C9.92574 10.9985 9.7042 11.0849 9.61558 11.3009L0.665204 24.259C0.576587 24.3454 0.532278 24.475 0.576587 24.6046V34.5392C0.576587 34.8847 0.886748 35.1871 1.24122 35.1871H19.4078C19.7623 35.1871 20.0725 34.8847 20.0725 34.5392V11.6464C20.0725 11.3009 19.7623 10.9985 19.4078 10.9985H17.8127V8.53646L21.8005 4.60581ZM1.86154 33.8913V25.6844H18.6989V33.8913H1.86154ZM18.6989 24.3886H2.1717L10.5018 12.2943H18.6989V24.3886ZM12.9387 10.9985V7.67258C12.9387 7.41341 12.8058 7.19745 12.54 7.11106L8.99526 5.46969C8.90664 5.4265 8.81802 5.4265 8.7294 5.4265H3.63389V1.92779H17.2367L20.294 4.21707L16.6607 7.80216C16.5277 7.93174 16.4834 8.10452 16.4834 8.27729V10.9985H12.9387Z" fill="#007198"/>
</svg>
