<svg width="34" height="36" viewBox="0 0 34 36" fill="none" xmlns="http://www.w3.org/2000/svg">
<path d="M23.2843 33.9675H5.35633V14.8606L15.9071 5.91692L26.3754 14.6248C26.3754 14.6248 26.3754 14.6451 26.3754 14.6573V18.3161C26.3754 18.4778 26.4405 18.6329 26.5565 18.7473C26.6724 18.8616 26.8296 18.9259 26.9936 18.9259C27.1576 18.9259 27.3148 18.8616 27.4307 18.7473C27.5467 18.6329 27.6118 18.4778 27.6118 18.3161V15.6492L31.1273 18.5763C31.2525 18.6808 31.4146 18.7321 31.5781 18.7188C31.7416 18.7054 31.893 18.6286 31.999 18.5051C32.105 18.3817 32.157 18.2217 32.1435 18.0605C32.13 17.8992 32.052 17.7499 31.9269 17.6453L16.3027 4.63635C16.1907 4.54188 16.0482 4.48996 15.9009 4.48996C15.7535 4.48996 15.611 4.54188 15.4991 4.63635L0.212847 17.6047C0.0882388 17.7125 0.012155 17.8647 0.00133428 18.0279C-0.00948644 18.191 0.0458421 18.3517 0.155148 18.4746C0.264454 18.5975 0.418784 18.6726 0.584186 18.6833C0.749589 18.6939 0.912515 18.6394 1.03712 18.5315L4.11992 15.9013V34.5773C4.11992 34.739 4.18505 34.8941 4.30099 35.0085C4.41692 35.1228 4.57417 35.1871 4.73813 35.1871H23.2843C23.4483 35.1871 23.6056 35.1228 23.7215 35.0085C23.8374 34.8941 23.9026 34.739 23.9026 34.5773C23.9026 34.4156 23.8374 34.2605 23.7215 34.1461C23.6056 34.0317 23.4483 33.9675 23.2843 33.9675Z" fill="#007198"/>
<path d="M33.3818 27.1906C32.626 27.1976 31.8766 27.0527 31.1794 26.7647C30.4822 26.4768 29.8517 26.0518 29.3264 25.5157C28.3111 24.4942 27.7026 23.1464 27.6119 21.7187C27.6119 21.6374 27.6119 21.5602 27.6119 21.4789C27.61 21.4106 27.5961 21.3432 27.5707 21.2797C27.5482 21.1346 27.474 21.0021 27.3615 20.906C27.249 20.8099 27.1054 20.7565 26.9566 20.7553C26.7955 20.7595 26.6425 20.8256 26.5301 20.9395C26.4177 21.0534 26.3548 21.2061 26.3549 21.3651C26.3549 21.483 26.3549 21.6008 26.3549 21.7228C26.2477 24.7027 23.6018 27.1215 20.3335 27.154H20.2635H20.1934C20.0294 27.154 19.8722 27.2183 19.7563 27.3327C19.6403 27.447 19.5752 27.6021 19.5752 27.7638C19.5752 27.9256 19.6403 28.0807 19.7563 28.195C19.8722 28.3094 20.0294 28.3736 20.1934 28.3736C21.779 28.389 23.2965 29.0116 24.4254 30.11C25.5543 31.2084 26.2062 32.6965 26.2436 34.2602C26.2615 34.4394 26.3392 34.6077 26.4645 34.7387C26.5898 34.8696 26.7556 34.9559 26.936 34.9838C27.0999 34.9838 27.2572 34.9196 27.3731 34.8052C27.4891 34.6909 27.5542 34.5357 27.5542 34.374C27.5212 31.1218 30.0847 28.4468 33.2252 28.4102H33.3818C33.5458 28.4102 33.703 28.346 33.819 28.2316C33.9349 28.1173 34 27.9622 34 27.8004C34 27.6387 33.9349 27.4836 33.819 27.3692C33.703 27.2549 33.5458 27.1906 33.3818 27.1906ZM26.8824 31.5283C26.1464 29.8901 24.8266 28.5752 23.1732 27.833C24.8507 27.169 26.2132 25.9063 26.9896 24.2961C27.3429 25.0666 27.8328 25.7687 28.4362 26.3694C29.0296 26.9634 29.7279 27.4456 30.4969 27.7923C28.8558 28.5411 27.564 29.8764 26.8824 31.5283Z" fill="#007198"/>
<path d="M2.67754 5.65675H2.71875C3.58662 5.67738 4.41315 6.02665 5.027 6.63215C5.64085 7.23765 5.99494 8.05293 6.01586 8.90899C6.02889 9.08018 6.10319 9.24122 6.2255 9.36335C6.3478 9.48548 6.51015 9.56075 6.68352 9.5757C6.76471 9.57464 6.84489 9.55781 6.91948 9.52618C6.99408 9.49455 7.06162 9.44874 7.11826 9.39136C7.17491 9.33398 7.21953 9.26615 7.2496 9.19176C7.27966 9.11736 7.29458 9.03785 7.29349 8.95777C7.26789 8.11538 7.58114 7.29721 8.16487 6.68181C8.74861 6.06641 9.55543 5.70376 10.4093 5.67301H10.5082C10.6721 5.67301 10.8294 5.60876 10.9453 5.4944C11.0612 5.38004 11.1264 5.22494 11.1264 5.06321C11.1264 4.90148 11.0612 4.74638 10.9453 4.63202C10.8294 4.51766 10.6721 4.45342 10.5082 4.45342C10.093 4.46029 9.68085 4.3822 9.2978 4.22406C8.91474 4.06593 8.56908 3.83119 8.28262 3.53466C7.72316 2.97258 7.3868 2.23111 7.3347 1.4451C7.3347 1.39631 7.3347 1.35159 7.3347 1.30281C7.33342 1.24483 7.32371 1.18733 7.30585 1.13207C7.2813 0.990681 7.20635 0.862599 7.09451 0.770914C6.98267 0.67923 6.8413 0.629977 6.69589 0.632035C6.6147 0.633096 6.53452 0.649921 6.45993 0.68155C6.38534 0.713179 6.31779 0.758993 6.26115 0.816374C6.20451 0.873755 6.15988 0.94158 6.12981 1.01598C6.09975 1.09037 6.08483 1.16988 6.08592 1.24996C6.08592 1.32314 6.08592 1.39225 6.08592 1.46136C6.02087 2.28186 5.64013 3.04676 5.02175 3.59929C4.40336 4.15181 3.59416 4.45013 2.75997 4.43309H2.66105C2.49709 4.43309 2.33985 4.49734 2.22392 4.6117C2.10798 4.72605 2.04285 4.88116 2.04285 5.04289C2.04285 5.20461 2.10798 5.35972 2.22392 5.47408C2.33985 5.58843 2.49709 5.65268 2.66105 5.65268L2.67754 5.65675ZM6.71237 3.50214C6.9008 3.82429 7.12924 4.122 7.3924 4.38837C7.64637 4.64554 7.93152 4.87084 8.24141 5.05915C7.56871 5.46771 7.01713 6.04404 6.64231 6.72999C6.43098 6.37088 6.17177 6.04136 5.87161 5.75025C5.6111 5.5023 5.322 5.28536 5.01024 5.10387C5.71062 4.72699 6.29776 4.17448 6.71237 3.50214Z" fill="#007198"/>
<path d="M12.981 16.4867C12.817 16.4867 12.6598 16.5509 12.5439 16.6653C12.4279 16.7797 12.3628 16.9348 12.3628 17.0965V23.601C12.3628 23.7627 12.4279 23.9178 12.5439 24.0322C12.6598 24.1465 12.817 24.2108 12.981 24.2108H19.5752C19.7392 24.2108 19.8964 24.1465 20.0124 24.0322C20.1283 23.9178 20.1934 23.7627 20.1934 23.601V17.0965C20.1934 16.9348 20.1283 16.7797 20.0124 16.6653C19.8964 16.5509 19.7392 16.4867 19.5752 16.4867H12.981ZM18.957 22.9912H13.5992V17.7063H18.957V22.9912Z" fill="#007198"/>
</svg>
