<svg width="199" height="104" viewBox="0 0 199 104" fill="none" xmlns="http://www.w3.org/2000/svg">
<path d="M28.8005 72.6058C29.0663 72.3466 29.0663 71.9579 28.8005 71.6987L28.7562 71.6555L24.9013 68.7616C24.7684 68.6752 24.6355 68.632 24.5025 68.632H9.96926C9.61479 68.632 9.30463 68.9343 9.30463 69.2799V74.0312C9.30463 74.3768 9.61479 74.6791 9.96926 74.6791H14.0014L10.7225 79.3009C10.501 79.6032 10.5896 79.992 10.8997 80.2079C11.2099 80.4239 11.6087 80.3375 11.8302 80.0352L15.5965 74.7223L18.6095 76.1045V78.9985H17.1473C16.9257 78.9985 16.7042 79.0849 16.6156 79.3009L7.6652 92.259C7.57659 92.3454 7.53228 92.475 7.57659 92.6046V102.539C7.57659 102.885 7.88675 103.187 8.24122 103.187H26.4078C26.7623 103.187 27.0725 102.885 27.0725 102.539V79.6464C27.0725 79.3009 26.7623 78.9985 26.4078 78.9985H24.8127V76.5365L28.8005 72.6058ZM8.86154 101.891V93.6844H25.6989V101.891H8.86154ZM25.6989 92.3886H9.1717L17.5018 80.2943H25.6989V92.3886ZM19.9387 78.9985V75.6726C19.9387 75.4134 19.8058 75.1974 19.54 75.1111L15.9953 73.4697C15.9066 73.4265 15.818 73.4265 15.7294 73.4265H10.6339V69.9278H24.2367L27.294 72.2171L23.6607 75.8022C23.5277 75.9317 23.4834 76.1045 23.4834 76.2773V78.9985H19.9387Z" fill="#007198"/>
<path d="M5.09576 73.8152C5.70753 73.8152 6.20348 73.3318 6.20348 72.7354C6.20348 72.139 5.70753 71.6555 5.09576 71.6555C4.48398 71.6555 3.98804 72.139 3.98804 72.7354C3.98804 73.3318 4.48398 73.8152 5.09576 73.8152Z" fill="#007198"/>
<path d="M1.10772 76.8388C1.7195 76.8388 2.21544 76.3554 2.21544 75.759C2.21544 75.1626 1.7195 74.6791 1.10772 74.6791C0.495943 74.6791 0 75.1626 0 75.759C0 76.3554 0.495943 76.8388 1.10772 76.8388Z" fill="#007198"/>
<path d="M1.10772 71.2236C1.7195 71.2236 2.21544 70.7401 2.21544 70.1438C2.21544 69.5474 1.7195 69.0639 1.10772 69.0639C0.495943 69.0639 0 69.5474 0 70.1438C0 70.7401 0.495943 71.2236 1.10772 71.2236Z" fill="#007198"/>
</svg>
