<svg width="44" height="30" viewBox="0 0 44 30" fill="none" xmlns="http://www.w3.org/2000/svg">
<path d="M18.1268 12.7637C14.5072 12.7637 11.5627 15.6681 11.5627 19.238C11.5627 22.808 14.5072 25.7123 18.1268 25.7123C21.7444 25.7123 24.6879 22.808 24.6879 19.238C24.6875 15.6681 21.7444 12.7637 18.1268 12.7637ZM18.1268 24.3102C15.2908 24.3102 12.984 22.0349 12.984 19.238C12.984 16.4416 15.2913 14.1659 18.1268 14.1659C20.9608 14.1659 23.2666 16.4412 23.2666 19.238C23.2662 22.0349 20.9608 24.3102 18.1268 24.3102Z" fill="#007198"/>
<path d="M4.32222 12.7637C3.92947 12.7637 3.61157 13.0774 3.61157 13.4648V25.0112C3.61157 25.3987 3.92947 25.7123 4.32222 25.7123C4.71497 25.7123 5.03287 25.3987 5.03287 25.0112V13.4648C5.03287 13.0778 4.71497 12.7637 4.32222 12.7637Z" fill="#007198"/>
<path d="M31.706 12.7637C31.3133 12.7637 30.9954 13.0774 30.9954 13.4648V25.0112C30.9954 25.3987 31.3133 25.7123 31.706 25.7123C32.0988 25.7123 32.4167 25.3987 32.4167 25.0112V13.4648C32.4167 13.0778 32.0983 12.7637 31.706 12.7637Z" fill="#007198"/>
<path d="M43.2894 0.593842H8.77555C8.3828 0.593842 8.06491 0.90746 8.06491 1.29493V4.72931H4.9101C4.51735 4.72931 4.19946 5.04293 4.19946 5.43039V9.24991H0.710648C0.317896 9.24991 0 9.56352 0 9.95099V28.5241C0 28.9116 0.317896 29.2252 0.710648 29.2252H35.2244C35.6172 29.2252 35.9351 28.9116 35.9351 28.5241V24.7046H39.4239C39.8167 24.7046 40.1346 24.391 40.1346 24.0035V20.5673H43.2894C43.6821 20.5673 44 20.2537 44 19.8662V1.29446C44 0.907928 43.6816 0.593842 43.2894 0.593842ZM34.5138 27.8235H1.4213V10.6525H34.5138V27.8235ZM35.9351 23.3029V9.95146C35.9351 9.56399 35.6172 9.25037 35.2244 9.25037H5.62075V6.13195H38.7133V23.3029H35.9351ZM42.5787 19.1656H40.1346V5.43039C40.1346 5.04293 39.8167 4.72931 39.4239 4.72931H9.4862V1.99601H42.5787V19.1656Z" fill="#007198"/>
</svg>
